<svg width="30" height="30" viewBox="0 0 30 30" fill="none" xmlns="http://www.w3.org/2000/svg">
<path fill-rule="evenodd" clip-rule="evenodd" d="M15 1C13.6739 1 12.4021 1.52678 11.4645 2.46447C10.5268 3.40215 10 4.67392 10 6V12H20V6C20 5.34339 19.8707 4.69321 19.6194 4.08658C19.3681 3.47995 18.9998 2.92876 18.5355 2.46447C18.0712 2.00017 17.52 1.63188 16.9134 1.3806C16.3068 1.12933 15.6566 1 15 1ZM15 2.667C14.2044 2.667 13.4413 2.98307 12.8787 3.54568C12.3161 4.10829 12 4.87135 12 5.667V12H18V5.667C18 4.87135 17.6839 4.10829 17.1213 3.54568C16.5587 2.98307 15.7956 2.667 15 2.667Z" fill="#1A1A1A"/>
<path d="M3 9H27V29H3V9Z" stroke="#1A1A1A" stroke-width="2"/>
<path d="M22.1989 22.6667C22.1541 22.4919 22.0612 22.3564 21.92 22.2601C21.7811 22.1638 21.6053 22.1156 21.3925 22.1156C21.1685 22.1156 20.9758 22.1705 20.8145 22.2802C20.6532 22.3878 20.53 22.5446 20.4449 22.7507C20.3598 22.9568 20.3172 23.2043 20.3172 23.4933C20.3172 23.9346 20.4079 24.2762 20.5894 24.5181C20.7731 24.7601 21.0385 24.8822 21.3858 24.8844C21.6837 24.8822 21.9111 24.8161 22.0679 24.6862C22.2269 24.554 22.3087 24.3737 22.3132 24.1452H21.4126V23.2312H23.5497V23.8965C23.5497 24.3288 23.4568 24.7041 23.2708 25.0222C23.0871 25.338 22.8306 25.58 22.5013 25.748C22.172 25.916 21.7957 26 21.3723 26C20.9041 26 20.4908 25.8992 20.1324 25.6976C19.774 25.496 19.4951 25.207 19.2957 24.8306C19.0986 24.4543 19 24.013 19 23.5067C19 22.9892 19.1042 22.5412 19.3125 22.1626C19.5231 21.784 19.8076 21.4962 20.166 21.2991C20.5244 21.0997 20.9243 21 21.3656 21C21.7419 21 22.0858 21.0717 22.3972 21.2151C22.7086 21.3562 22.9606 21.5533 23.1532 21.8065C23.3459 22.0596 23.4601 22.3463 23.496 22.6667H22.1989Z" fill="#1A1A1A"/>
</svg>
