<svg xmlns="http://www.w3.org/2000/svg" width="323" height="209" fill="none"><path fill="#FEFEFE" d="m306.18 96.48-2.07 1c-4 4-4 8.93-3.53 14 2.5 7.39 8.78 9 15.35 9.38 3.46.22 4.29 1.58 4 4.55-.06.66 0-.17 0 .49-.14 3.3 1.07 7-.5 9.77-1.57 2.77-5.7 1.27-8.57 2.32a19.994 19.994 0 0 0-9.18 6.44c-1.71 4.58-2.06 9 1.28 13.13l-.05-.06c2.72 4 6.73 5.74 11.26 6.55 6.16 1.1 6.15 1.28 5.81 8.74-.25 5.53-4.28 3.62-7 3.64-8.76.08-17.16 1.35-24.89 5.76-.85.49-1.8.86-2.24 1.86-5.06 2.51-7.37 7.31-9.93 11.9-.48 2.26-1.61 4.44-1.47 6.75.27 4.62-2.12 5.41-6.15 5.38-20.32-.15-40.65-.07-61-.07H53.93c-5.9 0-6 0-6.41-6-.22-3.01-1.52-5.69-2.52-8.49l.05.09A31.726 31.726 0 0 0 33 181.54l.09.05a48.247 48.247 0 0 0-17.7-4.82c-3.11 0-6.19-.79-9.32-.32-2.65.4-4.1-.64-4-3.49v-4.94c0-2.21.91-3.27 3.18-3.48 3.44-.32 6.83-.95 9.79-2.93a13.722 13.722 0 0 0 6.4-9.61c.88-6.18-3.14-11.68-9.78-13.7-1.26-.38-2.57-.6-3.84-.91C2 135.92 2 136 2 130v-.5c0-7.75 0-7.73 7.53-8.92 4.23-.66 8-2.15 10.49-6v.06c2.48-6.07 2.68-11.87-2-17.09A19.89 19.89 0 0 0 6 93.49c-2.84 0-3.93-1.25-4-4.25C1.57 78 1.46 78 13.84 76.76L16.93 75c5.33-5.62 6.5-13 2.5-17.91-3-3.7-7.33-4.71-11.94-5.15C0 51.23 0 51.1 0 43.46c0-8.41 0-8.54 8-9.76a77.25 77.25 0 0 0 16.28-4.11C31.47 26.3 37.76 21.94 42 15c2-3.9 4.23-7.74 5.43-12 .5-1.77 1.2-3 3.25-2.94 71.273 0 142.54-.033 213.8-.1 5.59 0 10.5-.11 12 6.68 2.82 10.34 9.24 17.55 19 21.89 7.81 3.27 15.85 5.56 24.4 5.49 2.34 0 2.72 1.14 2.68 3.08-.08 3.64-.13 7.29 0 10.93.1 2.61-1 3.44-3.52 3.56-5.28.24-10.58.6-15.05 4l.06-.06c-3.81 3.74-4.29 8.14-2.86 13.07.38 1.31 1.55 2.56.81 4.11.54.62 1.07 1.25 1.6 1.87 4.36 1.48 8.71 2.91 13.39 3 4 .12 3.41 3.45 2.89 5.52-.84 3.33 3.2 8.3-2.89 9.91-3.74.99-7.74.75-10.81 3.47Z"/></svg>