<svg width="24" height="24" viewBox="0 0 24 24" fill="none" xmlns="http://www.w3.org/2000/svg">
<path d="M17 2H7C4.23858 2 2 4.23858 2 7V17C2 19.7614 4.23858 22 7 22H17C19.7614 22 22 19.7614 22 17V7C22 4.23858 19.7614 2 17 2Z" stroke="#14181F" stroke-width="2" stroke-linecap="round" stroke-linejoin="round"/>
<path d="M12.929 13.1391V19H10.2367V13.1391H8V10.7626H10.2367V9.89793C10.2367 6.68787 11.5777 5 14.4149 5C15.2848 5 15.5022 5.13979 15.9785 5.2537V7.60429C15.4453 7.51109 15.2951 7.45932 14.7411 7.45932C14.0836 7.45932 13.7315 7.64571 13.4105 8.01331C13.0895 8.38092 12.929 9.01775 12.929 9.92899V10.7678H15.9785L15.1605 13.1442H12.929V13.1391Z" fill="#14181F"/>
</svg>
