<svg width="24" height="23" viewBox="0 0 24 23" fill="none" xmlns="http://www.w3.org/2000/svg">
<path d="M16.5 4.5H14.25C13.2554 4.5 12.3016 4.89509 11.5983 5.59835C10.8951 6.30161 10.5 7.25544 10.5 8.25V10.5H8.25V13.5H10.5V19.5H13.5V13.5H15.75L16.5 10.5H13.5V8.25C13.5 8.05109 13.579 7.86032 13.7197 7.71967C13.8603 7.57902 14.0511 7.5 14.25 7.5H16.5V4.5Z" stroke="#14181F" stroke-linecap="round" stroke-linejoin="round"/>
<path d="M17 1H7C4.23858 1 2 3.34518 2 6.2381V16.7143C2 19.6072 4.23858 21.9524 7 21.9524H17C19.7614 21.9524 22 19.6072 22 16.7143V6.2381C22 3.34518 19.7614 1 17 1Z" stroke="#14181F" stroke-linecap="round" stroke-linejoin="round"/>
</svg>
