<svg width="125" height="18" viewBox="0 0 125 18" fill="none" xmlns="http://www.w3.org/2000/svg">
<path d="M8.73425 1.35678C9.78476 1.35678 10.6477 1.5 11.323 1.78643C11.9983 2.07286 12.5912 2.4196 13.1014 2.82663C13.2665 2.96231 13.4165 3.03015 13.5516 3.03015C13.8367 3.03015 14.0243 2.57789 14.1144 1.67337H14.6321C14.6021 2.27638 14.5796 3.01508 14.5646 3.88945C14.5496 4.74874 14.5421 5.89447 14.5421 7.32663H14.0243C13.9193 6.24121 13.7317 5.33668 13.4616 4.61307C13.2064 3.87438 12.7037 3.24874 11.9533 2.73618C11.6382 2.52512 11.2705 2.3593 10.8503 2.23869C10.4301 2.11809 10.0249 2.05779 9.63469 2.05779C8.76427 2.05779 8.04392 2.29899 7.47364 2.78141C6.90336 3.24874 6.44564 3.86683 6.10047 4.63568C5.77031 5.38945 5.53019 6.21859 5.38012 7.12312C5.24505 8.01257 5.17752 8.87939 5.17752 9.72362C5.17752 12.4372 5.50768 14.4196 6.168 15.6709C6.82833 16.9221 7.70626 17.5477 8.80179 17.5477C9.0419 17.5477 9.25201 17.5251 9.43209 17.4799C9.61218 17.4347 9.76976 17.3668 9.90482 17.2764C10.0699 17.1557 10.19 17.005 10.265 16.8241C10.34 16.6432 10.3776 16.4171 10.3776 16.1457V13.8844C10.3776 13.1458 10.3175 12.5955 10.1975 12.2337C10.0924 11.8719 9.8748 11.6231 9.54465 11.4874C9.21449 11.3518 8.73425 11.2763 8.10395 11.2613V10.809C8.44912 10.8241 8.86932 10.8392 9.36456 10.8543C9.8598 10.8543 10.3776 10.8618 10.9178 10.8769C11.4581 10.8769 11.9533 10.8769 12.4035 10.8769C13.1239 10.8769 13.7842 10.8693 14.3845 10.8543C14.9998 10.8392 15.4951 10.8241 15.8702 10.809V11.2613C15.6151 11.2763 15.42 11.3291 15.2849 11.4196C15.1499 11.5101 15.0598 11.691 15.0148 11.9623C14.9698 12.2337 14.9473 12.6483 14.9473 13.206V17.6834H14.4971C14.4821 17.4271 14.422 17.1483 14.317 16.8467C14.212 16.5452 14.0393 16.3945 13.7992 16.3945C13.6791 16.3945 13.5066 16.4247 13.2815 16.4849C13.0713 16.5452 12.7337 16.6884 12.2685 16.9146C11.6832 17.201 11.0604 17.4573 10.4001 17.6834C9.75475 17.8945 9.10943 18 8.46412 18C6.5882 18 5.01994 17.6758 3.75933 17.0276C2.49872 16.3794 1.55326 15.4447 0.922949 14.2236C0.307649 13.0025 0 11.5327 0 9.81407C0 8.12563 0.367683 6.64824 1.10304 5.38191C1.85341 4.11558 2.8814 3.12815 4.18704 2.4196C5.50768 1.71105 7.02342 1.35678 8.73425 1.35678ZM21.9225 0V15.5804C21.9225 16.2136 22.0126 16.6432 22.1927 16.8693C22.3877 17.0955 22.718 17.2085 23.1831 17.2085V17.6834C22.883 17.6684 22.4327 17.6532 21.8325 17.6382C21.2322 17.608 20.6169 17.593 19.9866 17.593C19.3563 17.593 18.7184 17.608 18.0732 17.6382C17.4279 17.6532 16.9401 17.6684 16.6099 17.6834V17.2085C17.0751 17.2085 17.3978 17.0955 17.5779 16.8693C17.773 16.6432 17.8706 16.2136 17.8706 15.5804V2.71357C17.8706 2.03518 17.7805 1.53769 17.6004 1.22111C17.4203 0.889452 17.0902 0.723618 16.6099 0.723618V0.248744C17.0902 0.293971 17.5554 0.316584 18.0056 0.316584C18.756 0.316584 19.4539 0.293971 20.0991 0.248744C20.7595 0.188443 21.3673 0.105527 21.9225 0ZM32.9107 1.35678C34.6066 1.35678 36.0923 1.68091 37.3679 2.32915C38.6434 2.97738 39.6339 3.91206 40.3393 5.13317C41.0447 6.3392 41.3973 7.80905 41.3973 9.54271C41.3973 11.2311 41.0371 12.7085 40.3168 13.9749C39.5964 15.2412 38.591 16.2286 37.3003 16.9372C36.0247 17.6458 34.554 18 32.8882 18C31.1923 18 29.7066 17.6758 28.431 17.0276C27.1554 16.3794 26.1649 15.4447 25.4596 14.2236C24.7542 13.0025 24.4015 11.5327 24.4015 9.81407C24.4015 8.12563 24.7617 6.64824 25.4821 5.38191C26.2174 4.11558 27.223 3.12815 28.4985 2.4196C29.7741 1.71105 31.2449 1.35678 32.9107 1.35678ZM32.8206 1.76382C32.0702 1.76382 31.4174 2.10302 30.8622 2.78141C30.307 3.4598 29.8793 4.39448 29.5791 5.58543C29.2789 6.77638 29.1288 8.15578 29.1288 9.72362C29.1288 11.3216 29.3014 12.7161 29.6466 13.907C29.9918 15.0829 30.457 15.995 31.0423 16.6432C31.6276 17.2764 32.2728 17.593 32.9782 17.593C33.7286 17.593 34.3814 17.2538 34.9367 16.5754C35.4919 15.897 35.9196 14.9623 36.2198 13.7714C36.52 12.5653 36.67 11.1859 36.67 9.63317C36.67 8.0201 36.4975 6.62563 36.1523 5.44975C35.8071 4.27387 35.3419 3.36935 34.7566 2.73618C34.1713 2.08794 33.526 1.76382 32.8206 1.76382ZM42.6655 1.67337C43.1007 1.68844 43.6709 1.70352 44.3763 1.71859C45.0967 1.73367 45.817 1.74121 46.5374 1.74121C47.2878 1.74121 48.0081 1.73367 48.6984 1.71859C49.3887 1.70352 49.8765 1.69598 50.1616 1.69598C51.6924 1.69598 52.953 1.8392 53.9435 2.12563C54.9489 2.41206 55.6993 2.84925 56.1946 3.43719C56.6898 4.01005 56.9374 4.7412 56.9374 5.63065C56.9374 6.18844 56.8249 6.73115 56.5998 7.25879C56.3747 7.78644 55.992 8.26884 55.4517 8.70603C54.9114 9.12814 54.1686 9.46733 53.2231 9.72362C52.2926 9.96482 51.1071 10.0854 49.6664 10.0854H47.5053V9.63317H49.4413C50.2066 9.63317 50.7844 9.46733 51.1746 9.13568C51.5798 8.78894 51.8499 8.33668 51.985 7.77889C52.135 7.20603 52.2101 6.57286 52.2101 5.8794C52.2101 4.68845 52.045 3.76884 51.7149 3.1206C51.3997 2.45728 50.8445 2.12563 50.0491 2.12563C49.5389 2.12563 49.2086 2.25377 49.0586 2.51005C48.9086 2.76634 48.8335 3.28644 48.8335 4.07035V15.2864C48.8335 15.8291 48.871 16.2362 48.946 16.5075C49.0361 16.7789 49.1937 16.9598 49.4188 17.0503C49.6439 17.1407 49.9815 17.201 50.4318 17.2312V17.6834C49.9965 17.6532 49.4337 17.6382 48.7434 17.6382C48.0681 17.6232 47.3778 17.6156 46.6724 17.6156C45.862 17.6156 45.0967 17.6232 44.3763 17.6382C43.6709 17.6382 43.1007 17.6532 42.6655 17.6834V17.2312C43.1307 17.201 43.4759 17.1407 43.701 17.0503C43.9261 16.9598 44.0761 16.7789 44.1512 16.5075C44.2263 16.2362 44.2638 15.8291 44.2638 15.2864V4.07035C44.2638 3.51257 44.2263 3.10553 44.1512 2.84925C44.0761 2.57789 43.9186 2.39699 43.6785 2.30653C43.4534 2.20101 43.1157 2.1407 42.6655 2.12563V1.67337ZM47.3703 9.701C47.9105 9.71608 48.4207 9.74623 48.901 9.79146C49.3813 9.83668 49.824 9.88191 50.2292 9.92714C50.6344 9.95729 50.9796 9.9799 51.2647 9.99498C52.8705 10.0704 54.071 10.3492 54.8664 10.8317C55.6768 11.3141 56.1721 12.0226 56.3521 12.9573L56.8249 15.309C56.945 15.8668 57.08 16.2512 57.2301 16.4623C57.3801 16.6734 57.5827 16.7789 57.8379 16.7789C57.9879 16.7789 58.1155 16.7563 58.2206 16.7111C58.3256 16.6658 58.4307 16.5904 58.5357 16.4849L58.8283 16.7789C58.3632 17.2462 57.8528 17.5628 57.2976 17.7286C56.7573 17.9095 56.142 18 55.4517 18C54.4762 18 53.6883 17.8267 53.088 17.4799C52.4878 17.1181 52.1201 16.4773 51.985 15.5578L51.6473 13.2965C51.5573 12.6784 51.4448 12.1282 51.3097 11.6457C51.1746 11.1633 50.9945 10.7864 50.7694 10.5151C50.5443 10.2286 50.2367 10.0854 49.8465 10.0854H47.4153L47.3703 9.701ZM66.3854 1.67337C69.5369 1.67337 71.8705 2.35176 73.3863 3.70854C74.917 5.05026 75.6824 6.9799 75.6824 9.49749C75.6824 11.1407 75.3072 12.5804 74.5569 13.8166C73.8065 15.0377 72.7184 15.9874 71.2928 16.6658C69.882 17.3442 68.1787 17.6834 66.1828 17.6834C65.9426 17.6834 65.62 17.6758 65.2148 17.6608C64.8246 17.6458 64.4119 17.6382 63.9767 17.6382C63.5415 17.6232 63.1512 17.6156 62.8061 17.6156C62.0557 17.6156 61.3204 17.6232 60.6001 17.6382C59.8947 17.6382 59.3244 17.6532 58.8892 17.6834V17.2312C59.3544 17.201 59.6996 17.1407 59.9247 17.0503C60.1499 16.9598 60.2999 16.7789 60.375 16.5075C60.4499 16.2362 60.4875 15.8291 60.4875 15.2864V4.07035C60.4875 3.51257 60.4499 3.10553 60.375 2.84925C60.2999 2.57789 60.1423 2.39699 59.9022 2.30653C59.6771 2.20101 59.3395 2.1407 58.8892 2.12563V1.67337C59.3244 1.68844 59.8947 1.71105 60.6001 1.74121C61.3204 1.75628 62.0408 1.75628 62.7611 1.74121C63.3164 1.72614 63.9391 1.71105 64.6295 1.69598C65.3348 1.68091 65.9201 1.67337 66.3854 1.67337ZM66.7231 2.0804C66.0326 2.0804 65.5824 2.20854 65.3724 2.46483C65.1623 2.72111 65.0572 3.24121 65.0572 4.02513V15.3317C65.0572 16.1155 65.1623 16.6356 65.3724 16.892C65.5975 17.1483 66.0552 17.2764 66.7456 17.2764C67.766 17.2764 68.5839 16.9824 69.1993 16.3945C69.8145 15.7915 70.2573 14.917 70.5274 13.7714C70.8125 12.6257 70.9551 11.2311 70.9551 9.58794C70.9551 7.8995 70.805 6.50502 70.5049 5.40452C70.2197 4.28894 69.762 3.4598 69.1317 2.91709C68.5164 2.3593 67.7135 2.0804 66.7231 2.0804ZM84.6731 1.67337L90.1207 15.7839C90.3308 16.2964 90.5559 16.6658 90.7961 16.892C91.0361 17.1031 91.2537 17.2161 91.4489 17.2312V17.6834C90.9086 17.6532 90.2783 17.6382 89.5579 17.6382C88.8376 17.6232 88.1022 17.6156 87.3519 17.6156C86.5865 17.6156 85.8662 17.6232 85.1908 17.6382C84.5155 17.6382 83.9752 17.6532 83.57 17.6834V17.2312C84.3354 17.201 84.8156 17.0729 85.0107 16.8467C85.2208 16.6056 85.1757 16.1005 84.8757 15.3317L81.2739 5.31407L81.7241 4.52261L78.6176 12.6407C78.2424 13.6206 78.0098 14.4121 77.9198 15.0151C77.8447 15.603 77.8822 16.0553 78.0323 16.3719C78.1824 16.6884 78.4225 16.907 78.7527 17.0276C79.0828 17.1483 79.473 17.2161 79.9233 17.2312V17.6834C79.3679 17.6532 78.8652 17.6382 78.415 17.6382C77.9798 17.6232 77.4995 17.6156 76.9743 17.6156C76.6891 17.6156 76.3815 17.6232 76.0514 17.6382C75.7362 17.6382 75.4661 17.6532 75.241 17.6834V17.2312C75.5861 17.1709 75.9237 16.9522 76.254 16.5754C76.5991 16.1834 76.9518 15.5201 77.312 14.5854L82.3094 1.67337C82.6696 1.70352 83.0597 1.71859 83.48 1.71859C83.9151 1.71859 84.3129 1.70352 84.6731 1.67337ZM85.461 11.1709V11.6231H78.7527L78.9778 11.1709H85.461ZM106.798 1.67337V2.12563C106.348 2.21608 106.003 2.37437 105.762 2.6005C105.537 2.82663 105.387 3.1809 105.312 3.66332C105.237 4.13065 105.2 4.79397 105.2 5.65327V17.6834C104.975 17.6532 104.727 17.6382 104.457 17.6382C104.202 17.6382 103.924 17.6532 103.624 17.6834L93.6516 6.73869V13.2513C93.6516 14.2613 93.689 15.0377 93.7641 15.5804C93.8542 16.1081 94.0568 16.4925 94.3719 16.7337C94.702 16.9598 95.2198 17.1257 95.9252 17.2312V17.6834C95.625 17.6532 95.2349 17.6382 94.7546 17.6382C94.2743 17.6232 93.8241 17.6156 93.4039 17.6156C93.0738 17.6156 92.7362 17.6232 92.391 17.6382C92.0457 17.6382 91.7607 17.6532 91.5355 17.6834V17.2312C92.0007 17.1257 92.3459 16.9674 92.571 16.7563C92.7962 16.5302 92.9462 16.1759 93.0213 15.6935C93.0963 15.211 93.1338 14.5478 93.1338 13.7035V4.07035C93.1338 3.51257 93.0963 3.10553 93.0213 2.84925C92.9462 2.57789 92.7886 2.39699 92.5485 2.30653C92.3234 2.20101 91.9858 2.1407 91.5355 2.12563V1.67337C91.7607 1.68844 92.0457 1.70352 92.391 1.71859C92.7362 1.73367 93.0738 1.74121 93.4039 1.74121C93.7791 1.74121 94.1468 1.73367 94.507 1.71859C94.8672 1.70352 95.1899 1.68844 95.475 1.67337L104.682 11.4422V6.10553C104.682 5.09548 104.637 4.32664 104.547 3.799C104.472 3.25628 104.277 2.86432 103.962 2.62312C103.646 2.38191 103.129 2.21608 102.408 2.12563V1.67337C102.709 1.68844 103.099 1.70352 103.579 1.71859C104.059 1.73367 104.509 1.74121 104.93 1.74121C105.275 1.74121 105.612 1.73367 105.943 1.71859C106.288 1.70352 106.573 1.68844 106.798 1.67337ZM116.513 1.35678C118.21 1.35678 119.695 1.68091 120.971 2.32915C122.246 2.97738 123.236 3.91206 123.942 5.13317C124.648 6.3392 125 7.80905 125 9.54271C125 11.2311 124.64 12.7085 123.919 13.9749C123.199 15.2412 122.194 16.2286 120.903 16.9372C119.628 17.6458 118.157 18 116.491 18C114.795 18 113.309 17.6758 112.034 17.0276C110.758 16.3794 109.768 15.4447 109.062 14.2236C108.357 13.0025 108.004 11.5327 108.004 9.81407C108.004 8.12563 108.364 6.64824 109.085 5.38191C109.82 4.11558 110.826 3.12815 112.101 2.4196C113.376 1.71105 114.848 1.35678 116.513 1.35678ZM116.423 1.76382C115.673 1.76382 115.02 2.10302 114.465 2.78141C113.91 3.4598 113.482 4.39448 113.182 5.58543C112.881 6.77638 112.732 8.15578 112.732 9.72362C112.732 11.3216 112.904 12.7161 113.249 13.907C113.595 15.0829 114.06 15.995 114.645 16.6432C115.23 17.2764 115.875 17.593 116.581 17.593C117.332 17.593 117.984 17.2538 118.539 16.5754C119.094 15.897 119.522 14.9623 119.822 13.7714C120.123 12.5653 120.273 11.1859 120.273 9.63317C120.273 8.0201 120.1 6.62563 119.755 5.44975C119.409 4.27387 118.945 3.36935 118.359 2.73618C117.774 2.08794 117.129 1.76382 116.423 1.76382Z" fill="#1A1A1A"/>
</svg>
