<svg width="30" height="30" viewBox="0 0 30 30" fill="none" xmlns="http://www.w3.org/2000/svg">
<path fill-rule="evenodd" clip-rule="evenodd" d="M13 24C6.925 24 2 19.075 2 13C2 6.925 6.925 2 13 2C19.075 2 24 6.925 24 13C24 19.075 19.075 24 13 24ZM0 13C0 5.82 5.82 0 13 0C20.18 0 26 5.82 26 13C26 16.23 24.822 19.185 22.872 21.458L29.707 28.293C29.8892 28.4816 29.99 28.7342 29.9877 28.9964C29.9854 29.2586 29.8802 29.5094 29.6948 29.6948C29.5094 29.8802 29.2586 29.9854 28.9964 29.9877C28.7342 29.99 28.4816 29.8892 28.293 29.707L21.458 22.872C19.1045 24.8944 16.1031 26.0044 13 26C5.82 26 0 20.18 0 13Z" fill="#1A1A1A"/>
</svg>
