<svg xmlns="http://www.w3.org/2000/svg" fill="none" viewBox="0 0 380 110"><path fill="#E0EDF5" d="M0 35.382v-1.259c.393-1.287 2.117-1.438 3.75-1.692 8.376-1.343 16.979-1.88 25.46-2.819 13.608-1.56 27.367-2.584 40.944-4.229 3.236-.395 6.471.226 9.767-.16 16.632-1.945 33.263-3.759 49.789-6.24 8.542-1.287 17.342-1.88 26.005-2.819 16.253-1.814 32.628-3.176 48.911-4.887 7.681-.808 15.468-1.26 23.148-2.067 8.346-.884 16.632-1.72 25.083-2.444 12.353-1.08 24.645-2.452 37.028-3.467 7.136-.592 14.303-1.119 21.409-1.88 6.391-.625 12.84-.992 19.308-1.1 1.496.007 2.99-.1 4.445-.319h5.05c4.233.16 5.246 2.359 6.047 4.21.698 1.873 1.982 3.642 3.78 5.206 1.032.764 1.571 1.739 1.512 2.735 0 1.062.696 1.532 2.404 2.002 3.145.855 6.486 1.757 7.56 4.191.511.99 1.608 1.824 3.069 2.33 3.024 1.204 3.19 2.397.439 3.807-1.724.893-2.662 2.133-4.128 3.139a1.534 1.534 0 0 0-.49.716 1.13 1.13 0 0 0 .051.778c.193.62.034 1.264-.448 1.82s-1.258.992-2.197 1.234c-2.722.996-2.631 1.382-.091 2.65 2.918 1.457 5.201 3.055 5.473 5.64.136 1.437-.181 3.1 1.512 4.454.454.376.121.94-.393 1.297s-1.3.94-1.966 1.428c-2.252 1.607-2.268 1.597 0 3.308.106.075.272.14.318.235.998 2.133 3.674 3.364 6.335 4.614.279.12.516.272.698.45.182.178.305.376.36.584.56 2.518 2.041 4.915 2.525 7.443.017.368.224.723.59 1.015.393.24.655.55.75.887.095.337.018.684-.221.992-.259.421-.297.882-.11 1.318.187.435.591.822 1.153 1.107a32.597 32.597 0 0 0 3.629 2.377c1.603.734 1.315 1.88 1.708 2.904.227.546-.74.78-1.512.668-6.365-.856-12.715.282-19.08 0a8.742 8.742 0 0 0-2.726.23c-.864.216-1.626.563-2.218 1.01-.397.309-.904.554-1.482.718-.578.163-1.21.24-1.845.222-7.075 0-14 .94-20.925 1.692-7.56.817-15.27 1.306-22.906 2.01-7.136.658-14.242 1.457-21.379 2.068-16.873 1.429-33.64 3.214-50.514 4.614-4.823.404-9.691.649-14.439 1.316-3.734.526-7.212-.225-10.583-.742a37.333 37.333 0 0 0-11.4.169c-14.742 2.218-29.438 4.576-44.164 6.86-5.7.883-11.476 1.635-17.07 2.716-14.016 2.716-28.621 3.317-42.94 4.953-9.237 1.062-18.475 2.189-27.774 2.988-10.886.94-21.636 2.312-32.552 3.073-3.793.334-7.615.522-11.445.564-3.024 0-3.342-.244-3.856-2.058a5.93 5.93 0 0 1-.166-3.402c.136-.423.227-.94-.333-1.184-3.024-1.165-2.056-3.402-3.628-4.971-.575-.574-.71-1.457-1.406-2.106-1.512-1.484-1.966-3.289-3.584-4.698a5.486 5.486 0 0 0-1.058-1.053 2.807 2.807 0 0 1-.894-.552 1.558 1.558 0 0 1-.454-.73 1.195 1.195 0 0 1 .065-.783c.11-.255.305-.493.572-.698.469-.423 0-.799.106-1.193-.125-1.25.233-2.5 1.043-3.647.479-.465.786-.99.901-1.537a2.424 2.424 0 0 0-.235-1.63c-1.195-1.757-.756-3.843-2.525-5.516-.227-.252-.326-.54-.283-.827.044-.287.226-.56.525-.78.809-.853 1.212-1.83 1.164-2.82-.07-1.743.642-3.465 2.056-4.97.555-.527.85-1.143.85-1.772 0-.63-.295-1.245-.85-1.772-.277-.29-.45-.615-.504-.95a1.515 1.515 0 0 1 .187-.995c.375-.726.321-1.511-.153-2.214-.474-.704-1.337-1.278-2.433-1.62-.952-.348-1.678-.715-1.512-1.448.257-1.635-.816-3.157-1.043-4.755-.274-2.175-1.608-4.247-3.825-5.94C-.287 41.81.635 39.678.529 37.742.673 36.94.491 36.13 0 35.382Z"/></svg>