<svg xmlns="http://www.w3.org/2000/svg" fill="none" viewBox="0 0 30 30"><path fill="#1A1A1A" d="M14.835 15.974a6.418 6.418 0 1 0 0-12.836 6.418 6.418 0 0 0 0 12.836Zm0 2.14a8.557 8.557 0 1 1 0-17.114 8.557 8.557 0 0 1 0 17.113Zm10.696 10.695V25.6a3.208 3.208 0 0 0-3.209-3.208H7.348A3.209 3.209 0 0 0 4.139 25.6v3.21a1.07 1.07 0 0 1-2.139 0V25.6a5.348 5.348 0 0 1 5.348-5.348h14.974A5.348 5.348 0 0 1 27.67 25.6v3.21a1.07 1.07 0 0 1-2.14 0Z"/><path fill="#000" d="M22.134 25.502a1.073 1.073 0 0 0-.386-.567 1.1 1.1 0 0 0-.68-.206c-.242 0-.46.062-.65.187a1.208 1.208 0 0 0-.443.542 2.095 2.095 0 0 0-.159.854c0 .334.053.621.16.862.105.24.254.421.445.546.19.124.413.187.666.187.224 0 .42-.043.589-.128a.932.932 0 0 0 .393-.368 1.13 1.13 0 0 0 .146-.557h-1.047v-.642H23v.542c0 .38-.082.712-.246.997a1.661 1.661 0 0 1-.676.657 2.1 2.1 0 0 1-.99.227c-.414 0-.779-.093-1.094-.28a1.911 1.911 0 0 1-.735-.807c-.173-.35-.259-.76-.259-1.23 0-.472.088-.882.265-1.23A1.94 1.94 0 0 1 20 24.28c.314-.187.668-.28 1.062-.28.326 0 .625.063.897.19.275.127.499.304.673.533.175.226.285.486.33.779h-.828Z"/></svg>