<svg width="30" height="30" viewBox="0 0 30 30" fill="none" xmlns="http://www.w3.org/2000/svg">
<path d="M22.1989 25.6667C22.1541 25.4919 22.0612 25.3564 21.92 25.2601C21.7811 25.1638 21.6053 25.1156 21.3925 25.1156C21.1685 25.1156 20.9758 25.1705 20.8145 25.2802C20.6532 25.3878 20.53 25.5446 20.4449 25.7507C20.3598 25.9568 20.3172 26.2043 20.3172 26.4933C20.3172 26.9346 20.4079 27.2762 20.5894 27.5181C20.7731 27.7601 21.0385 27.8822 21.3858 27.8844C21.6837 27.8822 21.9111 27.8161 22.0679 27.6862C22.2269 27.554 22.3087 27.3737 22.3132 27.1452H21.4126V26.2312H23.5497V26.8965C23.5497 27.3288 23.4568 27.7041 23.2708 28.0222C23.0871 28.338 22.8306 28.58 22.5013 28.748C22.172 28.916 21.7957 29 21.3723 29C20.9041 29 20.4908 28.8992 20.1324 28.6976C19.774 28.496 19.4951 28.207 19.2957 27.8306C19.0986 27.4543 19 27.013 19 26.5067C19 25.9892 19.1042 25.5412 19.3125 25.1626C19.5231 24.784 19.8076 24.4962 20.166 24.2991C20.5244 24.0997 20.9243 24 21.3656 24C21.7419 24 22.0858 24.0717 22.3972 24.2151C22.7086 24.3562 22.9606 24.5533 23.1532 24.8065C23.3459 25.0596 23.4601 25.3463 23.496 25.6667H22.1989Z" fill="#1A1A1A"/>
<path d="M14.835 15.9742C16.537 15.9742 18.1693 15.298 19.3729 14.0945C20.5764 12.891 21.2525 11.2587 21.2525 9.55667C21.2525 7.85464 20.5764 6.22232 19.3729 5.01881C18.1693 3.81529 16.537 3.13917 14.835 3.13917C13.133 3.13917 11.5007 3.81529 10.2971 5.01881C9.09363 6.22232 8.4175 7.85464 8.4175 9.55667C8.4175 11.2587 9.09363 12.891 10.2971 14.0945C11.5007 15.298 13.133 15.9742 14.835 15.9742ZM14.835 18.1133C12.5656 18.1133 10.3892 17.2118 8.78452 15.6071C7.17984 14.0025 6.27833 11.826 6.27833 9.55667C6.27833 7.2873 7.17984 5.11088 8.78452 3.50619C10.3892 1.9015 12.5656 1 14.835 1C17.1044 1 19.2808 1.9015 20.8855 3.50619C22.4902 5.11088 23.3917 7.2873 23.3917 9.55667C23.3917 11.826 22.4902 14.0025 20.8855 15.6071C19.2808 17.2118 17.1044 18.1133 14.835 18.1133ZM25.5308 28.8092V25.6004C25.5308 24.7494 25.1928 23.9332 24.591 23.3315C23.9893 22.7297 23.1731 22.3917 22.3221 22.3917H7.34792C6.4969 22.3917 5.68075 22.7297 5.07899 23.3315C4.47723 23.9332 4.13917 24.7494 4.13917 25.6004V28.8092C4.13917 29.0928 4.02648 29.3649 3.82589 29.5655C3.62531 29.7661 3.35325 29.8787 3.06958 29.8787C2.78591 29.8787 2.51386 29.7661 2.31327 29.5655C2.11269 29.3649 2 29.0928 2 28.8092V25.6004C2 24.1821 2.56344 22.8218 3.56637 21.8189C4.5693 20.8159 5.92956 20.2525 7.34792 20.2525H22.3221C23.7404 20.2525 25.1007 20.8159 26.1036 21.8189C27.1066 22.8218 27.67 24.1821 27.67 25.6004V28.8092C27.67 29.0928 27.5573 29.3649 27.3567 29.5655C27.1561 29.7661 26.8841 29.8787 26.6004 29.8787C26.3167 29.8787 26.0447 29.7661 25.8441 29.5655C25.6435 29.3649 25.5308 29.0928 25.5308 28.8092Z" fill="#1A1A1A"/>
</svg>
